<?xml version="1.0" encoding="utf-8"?>
<!-- Generator: Adobe Illustrator 19.2.0, SVG Export Plug-In . SVG Version: 6.00 Build 0)  -->
<svg version="1.1" id="Layer_1" xmlns="http://www.w3.org/2000/svg" xmlns:xlink="http://www.w3.org/1999/xlink" x="0px" y="0px"
	 viewBox="0 0 377.4 959.3" style="enable-background:new 0 0 377.4 959.3;" xml:space="preserve">
<style type="text/css">
	.st0{fill:#F2F2F2;}
	.st1{fill:none;stroke:#FF7BAC;stroke-miterlimit:10;}
	.st2{fill:#F2F2F2;stroke:#00FFFF;stroke-miterlimit:10;}
</style>
<g id="Paper">
	<rect x="1.6" class="st0" width="374" height="959.3"/>
	<line class="st1" x1="1.6" y1="81.3" x2="375.6" y2="82.3"/>
	<line class="st2" x1="1.9" y1="106.3" x2="375.6" y2="106.3"/>
	<line class="st2" x1="1" y1="248.6" x2="374.7" y2="248.6"/>
	<line class="st2" x1="1.1" y1="230.8" x2="374.8" y2="230.8"/>
	<line class="st2" x1="1.2" y1="213" x2="374.8" y2="213"/>
	<line class="st2" x1="1.2" y1="195.2" x2="374.9" y2="195.2"/>
	<line class="st2" x1="1.9" y1="177.4" x2="375.6" y2="177.4"/>
	<line class="st2" x1="1.4" y1="159.7" x2="375.1" y2="159.7"/>
	<line class="st2" x1="1.5" y1="141.9" x2="375.2" y2="141.9"/>
	<line class="st2" x1="1.6" y1="124.1" x2="375.2" y2="124.1"/>
	<line class="st2" x1="1" y1="373" x2="374.7" y2="373"/>
	<line class="st2" x1="0" y1="355.2" x2="373.7" y2="355.2"/>
	<line class="st2" x1="3" y1="337.4" x2="376.7" y2="337.4"/>
	<line class="st2" x1="1" y1="319.7" x2="374.7" y2="319.7"/>
	<line class="st2" x1="1" y1="301.9" x2="374.7" y2="301.9"/>
	<line class="st2" x1="0.2" y1="284.1" x2="373.8" y2="284.1"/>
	<line class="st2" x1="1.9" y1="266.3" x2="375.6" y2="266.3"/>
	<line class="st2" x1="0" y1="444.1" x2="373.7" y2="444.1"/>
	<line class="st2" x1="2" y1="426.3" x2="375.7" y2="426.3"/>
	<line class="st2" x1="1" y1="408.6" x2="374.7" y2="408.6"/>
	<line class="st2" x1="3" y1="390.8" x2="376.7" y2="390.8"/>
	<line class="st2" x1="3" y1="461.9" x2="376.7" y2="461.9"/>
	<line class="st2" x1="3" y1="479.7" x2="376.7" y2="479.7"/>
	<line class="st2" x1="3" y1="496.6" x2="376.7" y2="496.6"/>
	<line class="st2" x1="1" y1="677.9" x2="374.7" y2="677.9"/>
	<line class="st2" x1="3.5" y1="659.9" x2="377.2" y2="659.9"/>
	<line class="st2" x1="3.5" y1="582.8" x2="377.2" y2="582.8"/>
	<line class="st2" x1="2" y1="641.9" x2="375.7" y2="641.9"/>
	<line class="st2" x1="3.5" y1="563.8" x2="377.2" y2="563.8"/>
	<line class="st2" x1="3" y1="620.9" x2="376.7" y2="620.9"/>
	<line class="st2" x1="3.5" y1="546.8" x2="377.2" y2="546.8"/>
	<line class="st2" x1="3.5" y1="600.8" x2="377.2" y2="600.8"/>
	<line class="st2" x1="0.5" y1="510.8" x2="374.2" y2="510.8"/>
	<line class="st2" x1="3.5" y1="528.5" x2="377.2" y2="528.5"/>
	<line class="st2" x1="3.8" y1="732" x2="377.4" y2="732"/>
	<line class="st2" x1="2.3" y1="791" x2="375.9" y2="791"/>
	<line class="st2" x1="3.8" y1="713" x2="377.4" y2="713"/>
	<line class="st2" x1="3.3" y1="770" x2="376.9" y2="770"/>
	<line class="st2" x1="3.8" y1="695.9" x2="377.4" y2="695.9"/>
	<line class="st2" x1="3.8" y1="750" x2="377.4" y2="750"/>
	<line class="st2" x1="2.5" y1="845.5" x2="376.1" y2="845.5"/>
	<line class="st2" x1="1" y1="904.6" x2="374.6" y2="904.6"/>
	<line class="st2" x1="2.5" y1="826.5" x2="376.1" y2="826.5"/>
	<line class="st2" x1="2" y1="883.5" x2="375.6" y2="883.5"/>
	<line class="st2" x1="2.5" y1="809.5" x2="376.1" y2="809.5"/>
	<line class="st2" x1="2.5" y1="863.5" x2="376.1" y2="863.5"/>
</g>
</svg>
