<?xml version="1.0" encoding="utf-8"?>
<!-- Generator: Adobe Illustrator 19.2.0, SVG Export Plug-In . SVG Version: 6.00 Build 0)  -->
<svg version="1.1" id="Layer_1" xmlns="http://www.w3.org/2000/svg" xmlns:xlink="http://www.w3.org/1999/xlink" x="0px" y="0px"
	 viewBox="0 0 172.3 808.3" style="enable-background:new 0 0 172.3 808.3;" xml:space="preserve">
<style type="text/css">
	.st0{fill:#F4878D;}
	.st1{fill:#EAE357;}
	.st2{fill:#D6D245;}
	.st3{fill:#B3B3B3;}
	.st4{fill:#DBAB83;}
	.st5{fill:#808080;}
</style>
<g>
	<path class="st0" d="M160.3,808.3H12.1c-6.6,0-12-5.4-12-12v-63.6c0-6.6,5.4-12,12-12h148.2c6.6,0,12,5.4,12,12v63.6
		C172.3,802.9,166.9,808.3,160.3,808.3z"/>
	<rect y="82" class="st1" width="172.2" height="661.9"/>
	<rect y="82" class="st2" width="86.7" height="661.9"/>
	<rect x="0.1" y="721.4" class="st3" width="172.2" height="22.8"/>
	<polygon class="st4" points="0,81.7 86.1,0 172.2,81.7 	"/>
	<path class="st5" d="M120.2,32.6c-0.3-0.3-68.1,0-68.1,0l34-32.3L120.2,32.6z"/>
</g>
</svg>
